<?xml version="1.0" encoding="UTF-8"?><svg id="b" xmlns="http://www.w3.org/2000/svg" width="254.4892mm" height="81.5428mm" viewBox="0 0 721.3867 231.145"><defs><style>.d{fill:#1d1d1b;}</style></defs><g id="c"><path class="d" d="M639.6465,190.0591v-46.9424c-3.0108,1.4629-5.7744,3.1357-8.2832,5.0166-3.3819,2.5361-6.3213,5.4638-8.8037,8.7715-2.4688,3.292-4.3174,6.6972-5.5391,10.2011-1.209,3.4629-1.8115,7.0567-1.8115,10.7735,0,2.8017,.3252,5.3095,.9756,7.5166,.6357,2.1552,1.5898,4.0537,2.8613,5.6943,1.2354,1.5938,2.6348,2.7891,4.1885,3.5723,1.5244,.7685,3.2431,1.1572,5.1474,1.1572,1.1621,0,2.2598-.1211,3.2813-.3594h.0088c1.0263-.2363,1.9951-.5869,2.8877-1.039l-.003-.0059c.918-.4922,1.8448-1.1465,2.7676-1.96,.7783-.6835,1.5537-1.4843,2.3223-2.3964m3.581,17.8564c-3.9716,3.293-7.7871,6.1885-11.456,8.6865-4.4024,2.9981-8.585,5.4239-12.5488,7.2715l-.003-.0039c-4.0215,1.8994-8.0468,3.3203-12.0761,4.2637-4.0577,.9492-8.1241,1.4238-12.1934,1.4238-5.4619,0-10.4932-.9102-15.0811-2.7363-4.5878-1.8242-8.6992-4.5606-12.3144-8.2041-3.627-3.6553-6.3526-7.7852-8.166-12.3858-1.8067-4.582-2.711-9.6191-2.711-15.1054,0-6.9336,1.8477-13.5508,5.5313-19.8379,3.623-6.1846,9.0224-12.0235,16.1846-17.5137,7.0771-5.4228,15.9003-10.5234,26.4589-15.2812,9.9922-4.503,21.5899-8.7178,34.794-12.6299v-30.6333c0-2.7476-.3477-5.1675-1.0303-7.2534-.6631-2.0166-1.6494-3.7466-2.9502-5.1817-1.2617-1.394-2.7754-2.4492-4.5224-3.1523-1.7881-.7178-3.8614-1.083-6.2071-1.083-2.2822,0-4.3369,.2485-6.1533,.7378-1.7617,.4736-3.3184,1.1821-4.6592,2.1147l-.0195,.0088c-1.291,.8794-2.2441,1.8442-2.8555,2.8906-.5732,.9868-.8623,2.0991-.8623,3.3418,0,.5376,.2578,1.4844,.7725,2.8325,.5879,1.5391,1.4746,3.4649,2.6631,5.7632l.0088,.02c1.2861,2.542,2.2568,4.9024,2.9023,7.0679,.6758,2.2695,1.0176,4.355,1.0176,6.25,0,3.6108-.6055,6.9043-1.8008,9.8721-1.2109,3-3.0186,5.6416-5.4131,7.9179-2.3877,2.2706-5.1142,3.9825-8.1816,5.1202h-.0088c-3.0362,1.124-6.4033,1.6933-10.0987,1.6933-4.6552,0-8.874-.6416-12.6513-1.9258-3.8408-1.3066-7.2119-3.2763-10.1045-5.9091l-.0088-.0088c-2.8818-2.6455-5.0547-5.7451-6.5098-9.2813-1.4394-3.4975-2.164-7.3906-2.164-11.6645,0-6.5777,1.7187-12.5606,5.1562-17.9346,3.3838-5.291,8.419-9.9463,15.0918-13.9507,6.5987-3.9702,14.2412-6.9404,22.9297-8.9106,8.6279-1.9546,18.2764-2.9317,28.9492-2.9317,11.1397,0,20.876,1.0752,29.211,3.2227,8.4541,2.1807,15.4453,5.4673,20.9726,9.8569,5.5723,4.4463,9.7529,10.1167,12.5352,17.001,2.7402,6.7808,4.1113,14.7227,4.1113,23.8203v73.4863c0,1.9034,.1182,3.5137,.3564,4.834,.2217,1.2324,.5469,2.2354,.9756,3.0069l.0293,.0478c.3291,.627,.7119,1.082,1.1338,1.3594l.002-.0029c.3867,.25,.8584,.3769,1.4043,.3769,.3691,0,.7959-.0566,1.2734-.1709,.5381-.1289,1.1924-.3486,1.957-.6582l.0567-.0176c.7754-.291,1.6572-.6709,2.6269-1.1211,.9395-.4365,2.0225-.9716,3.2227-1.5849l1.7012-.8662,1.2285,1.4765,4.4492,5.3535,1.2031,1.4463-1.1191,1.5117c-3.0615,4.1456-6.2266,7.7852-9.4766,10.92-3.2949,3.1738-6.6992,5.8467-10.2012,8.0156l.002,.0039c-3.4863,2.1748-7.0684,3.8115-10.7178,4.9072-3.6845,1.1045-7.4336,1.6592-11.2148,1.6592-7.836,0-14.8985-2.0947-21.2344-6.2773l-.0019,.0019c-3.1514-2.0644-6.0372-4.6133-8.6543-7.6221-2.0127-2.3154-3.8604-4.8984-5.5411-7.7441Z"/><path class="d" d="M448.5811,109.0361h.5634c5.4366,0,10.1162-.8828,14.0391-2.6509,3.8525-1.7348,7.0176-4.3462,9.4922-7.831l.0029,.0039c2.5098-3.5449,4.4082-8.1602,5.6895-13.8179,1.3066-5.7812,1.9619-12.6587,1.9619-20.6113,0-7.4116-.7139-13.8198-2.1406-19.2178-1.3926-5.2764-3.4659-9.6025-6.21-12.9619l-.0039,.0039c-2.7012-3.3071-6.166-5.7871-10.3799-7.439-3.7285-1.4609-8.0664-2.2895-13.0146-2.4907V109.0361Zm0,75.1489c0,10.9483,2.0478,18.4961,6.1416,22.6368,1.9726,1.997,4.7656,3.5136,8.3701,4.5439,3.7851,1.0811,8.4414,1.6211,13.9726,1.6211h3.6231v12.7549h-131.646v-12.6719l2.3286-.0742c4.7808-.1504,8.8364-.8086,12.1611-1.9766l-.0019-.0039c3.1709-1.1152,5.6631-2.6943,7.4756-4.7344,1.8398-2.0771,3.2461-4.9111,4.2002-8.5,.9921-3.7285,1.4931-8.2636,1.4931-13.5957V46.9096c0-5.3325-.501-9.8642-1.4912-13.5854h-.0019c-.9541-3.5718-2.3497-6.3901-4.1788-8.4336l-.0039,.0034c-1.8271-2.0132-4.333-3.5903-7.5146-4.7168-3.3286-1.1811-7.3843-1.8789-12.1572-2.0786l-2.3091-.0962V5.4053h120.0757c13.6943,0,25.7636,1.2431,36.2041,3.7285,10.5361,2.5092,19.4463,6.3051,26.7295,11.3847l.0029-.0053c7.3447,5.0981,12.8603,11.4155,16.5508,18.938,3.6767,7.4946,5.5146,16.1308,5.5146,25.895,0,10.042-1.9033,18.9233-5.7148,26.6196-3.8135,7.7041-9.5313,14.187-17.1592,19.4287l.0039,.0039c-7.5186,5.1851-16.7646,9.0718-27.7266,11.6499-10.8486,2.5488-23.4004,3.8301-37.6357,3.8301h-17.3066v57.3066Z"/><path class="d" d="M165.6733,228.4233v-80.9228h12.439l.2871,2.0752c1.2569,9.0625,3.9575,17.3711,8.0962,24.8994,4.1284,7.5049,9.7026,14.2539,16.7212,20.2226,7.0513,5.9952,14.6045,10.4961,22.6645,13.4883,8.0416,2.9854,16.6392,4.4824,25.8003,4.4824,5.8672,0,11.1348-.6679,15.793-2.0097v-.0088c4.6221-1.3301,8.6812-3.3174,12.1665-5.961l.0088-.0185c3.4688-2.5889,6.0635-5.5342,7.769-8.8301,1.6988-3.2783,2.5494-6.9531,2.5494-11.0195,0-6.083-4.1299-12.5156-12.3897-19.2959-8.647-7.0987-21.6797-14.4463-39.0932-22.044l-.4288-.1406-.1694-.0654c-1.1553-.4805-2.4106-1.0215-3.9224-1.6719-2.0654-.8906-4.5585-1.9639-5.8886-2.5264-12.3282-5.2138-22.6338-10.5488-30.9043-15.9814-8.416-5.5283-14.77-11.188-19.0449-16.9556l-.0108-.0107c-1.8696-2.5562-3.5234-5.229-4.9482-7.9868-1.4385-2.7876-2.647-5.6563-3.6114-8.5742v-.0093c-.958-2.9326-1.6899-5.9449-2.1826-9.0484-.4941-3.1176-.7466-6.2812-.7466-9.4951,0-10.2695,1.9571-19.6631,5.8672-28.188,3.9063-8.5161,9.7549-16.1289,17.5381-22.8423l.0098-.0112c7.7817-6.6631,16.6484-11.6645,26.5849-14.9951,9.9024-3.3159,20.8457-4.9785,32.8287-4.9785,12.9931,0,26.5688,2.5947,40.7226,7.7817,6.812,2.4951,12.061,4.3516,15.7461,5.5835,3.6846,1.23,5.7192,1.8408,6.103,1.8408,2.691,0,4.4805-.7046,5.4849-2.1128l-.0054-.0039c.564-.8354,1.0503-2.0932,1.4483-3.7573,.4306-1.7969,.7539-4.0664,.956-6.7881l.1665-2.226h13.1621V74.4272h-11.7099l-.3618-1.9717c-1.459-7.9633-4.0806-15.1748-7.8746-21.6264-3.788-6.4361-8.77-12.1431-14.955-17.0991h-.0088c-6.1636-4.9859-12.8496-8.7232-20.0557-11.2037-7.2207-2.4873-14.9912-3.7299-23.3076-3.7299-5.1675,0-9.8003,.5776-13.8945,1.7382-4.022,1.1416-7.5474,2.8531-10.5669,5.1368-2.9654,2.2422-5.1909,4.8169-6.6538,7.706-1.459,2.876-2.191,6.1192-2.191,9.7168,0,5.0547,3.1431,10.2163,9.4151,15.4785,6.6684,5.5943,16.7451,11.1939,30.2139,16.7954l.02,.0113,.1362,.0581c1.4233,.6089,2.502,1.0718,3.2051,1.3354l.0947,.0386c9.811,4.124,18.0786,7.749,24.8135,10.8613,7.0483,3.2539,12.5757,6.0157,16.5962,8.2705v.0088c4.001,2.2588,7.5058,4.5005,10.4985,6.7232,3.0703,2.2802,5.6436,4.5581,7.7017,6.8408,3.0854,3.3608,5.7905,6.875,8.1186,10.54,2.3238,3.6592,4.2857,7.5059,5.8863,11.5352l.0087,.0088c1.563,3.9756,2.7481,8.122,3.5381,12.4248,.7886,4.2861,1.188,8.6885,1.188,13.1924,0,10.8711-1.9951,20.7773-5.9809,29.7011-3.9849,8.9248-9.9571,16.835-17.9024,23.7129-7.918,6.8526-17.0303,11.9903-27.3286,15.4102-10.2549,3.4024-21.6631,5.1035-34.2144,5.1035-7.103,0-14.3671-.623-21.7744-1.8662-7.3657-1.2373-14.872-3.0938-22.5078-5.5664-7.394-2.3955-13.1748-4.2158-17.3213-5.457-3.8574-1.1534-5.9863-1.7334-6.372-1.7334-1.4883,0-2.8213,.2509-3.9903,.7451l.002,.0039c-1.1719,.498-2.2271,1.25-3.1577,2.2441l-.0093,.0088c-.9502,1.0137-1.7168,2.2588-2.293,3.7285-.6084,1.5518-1.0117,3.3486-1.1992,5.3877l-.2012,2.1875h-13.1714v-2.4043Z"/><path class="d" d="M61.0908,125.5669h30.4278c-.1558-7.1387-.5865-13.5274-1.2881-19.1597-.7666-6.1797-1.8565-11.3613-3.2578-15.5405l-.0049,.0024c-1.3648-3.978-2.9961-6.9267-4.875-8.8271-1.6607-1.6826-3.5576-2.5288-5.6743-2.5288-2.084,0-3.9649,.8569-5.6382,2.5722-1.9063,1.9517-3.583,4.9766-5.0269,9.0669-1.5102,4.2495-2.6548,9.4258-3.4311,15.5073-.7066,5.545-1.1187,11.8536-1.2315,18.9073m85.732,51.6865c-3.4395,8.3975-7.522,15.8145-12.2422,22.25-4.7554,6.4824-10.1573,11.9785-16.1949,16.4863l-.0034-.0049c-6.0395,4.5274-12.584,7.918-19.6264,10.1778-7.0591,2.2647-14.5977,3.3945-22.6026,3.3945-11.2163,0-21.4179-1.9463-30.5991-5.8291-9.2119-3.8955-17.3555-9.7256-24.4214-17.4766-7.0478-7.7334-12.3393-16.6464-15.8657-26.7363-3.5103-10.042-5.2671-21.2256-5.2671-33.5293,0-4.7646,.3159-9.4472,.9448-14.0273,.623-4.5479,1.5645-8.9688,2.8145-13.2383,1.2612-4.3115,2.8018-8.4155,4.6113-12.3062l.0039,.0025c1.8223-3.9194,3.9404-7.6734,6.3428-11.251l.0107-.0181c3.5249-5.1655,7.544-9.7949,12.0479-13.8686,4.4902-4.061,9.4468-7.5567,14.8647-10.4688,5.4561-2.9326,11.0982-5.1421,16.9097-6.6137,5.8037-1.4683,11.7817-2.2076,17.9209-2.2076,10.5112,0,19.9067,1.733,28.186,5.1871,8.3218,3.4736,15.4966,8.6865,21.5215,15.6235,5.9614,6.8936,10.5186,15.1606,13.6563,24.7944,3.1069,9.5406,4.8296,20.4478,5.1528,32.7193l.0654,2.4472-2.4599,.0039-81.0738,.1524c.4742,7.2187,1.6006,13.7402,3.3887,19.5556,1.9678,6.4014,4.7422,11.9551,8.3306,16.6543,3.5395,4.6368,7.584,8.1055,12.1338,10.4014,4.5312,2.2881,9.6167,3.4326,15.2583,3.4326,3.0708,0,6.038-.4668,8.8754-1.3916,2.8516-.9326,5.5987-2.333,8.2256-4.1992l.0093-.0088c2.6943-1.8974,5.271-4.2627,7.729-7.0849,2.4912-2.8614,4.8584-6.1895,7.1094-9.9747l1.1304-1.8964,1.979,.957,9.9599,4.8203,2.0298,.9834-.8559,2.0879Z"/></g></svg>