<svg xmlns="http://www.w3.org/2000/svg" width="25.135" height="17.416" viewBox="0 0 25.135 17.416"><g id="cta-email" transform="translate(0 0)"><path id="Path_29" d="M32.013,41.584H11.828a2.477,2.477,0,0,1-2.475-2.475V26.643a2.477,2.477,0,0,1,2.475-2.475H32.013a2.477,2.477,0,0,1,2.475,2.475V39.109A2.477,2.477,0,0,1,32.013,41.584ZM11.828,25.114A1.53,1.53,0,0,0,10.3,26.643V39.109a1.53,1.53,0,0,0,1.529,1.529H32.013a1.53,1.53,0,0,0,1.529-1.529V26.643a1.53,1.53,0,0,0-1.529-1.529Z" transform="translate(-9.353 -24.168)"/><path id="Path_30" d="M24.687,37.6a.473.473,0,0,1-.313-.118l-11.4-10.061.626-.709L24.687,36.5l11.085-9.785.626.709L25,37.488a.472.472,0,0,1-.314.117Z" transform="translate(-12.119 -26.114)"/><path id="Path_31" d="M0,0H11.6V.946H0Z" transform="translate(0.599 15.931) rotate(-48.728)"/><path id="Path_32" d="M0,0H.946V11.6H0Z" transform="translate(16.191 7.822) rotate(-41.272)"/></g></svg>
