<svg xmlns="http://www.w3.org/2000/svg" viewBox="0 0 23.709 23.714"><path id="Path_19" d="M21.451,25.825c2.258,0,3.782-1.589,4.231-4.366a2.7,2.7,0,0,0-.54-2.037l-.086-.081-3.28-2.593a2.7,2.7,0,0,0-3.4.13l-1.416,1.34c-2.95-.67-7.186-4.5-7.4-7.316l1.4-1.475a2.7,2.7,0,0,0,.1-3.388L8.484,2.77a.394.394,0,0,0-.1-.092,2.7,2.7,0,0,0-2.032-.54C3.589,2.591,2,4.115,2,6.374A19.451,19.451,0,0,0,21.451,25.825ZM6.528,3.213a1.68,1.68,0,0,1,.232,0,1.621,1.621,0,0,1,.929.3L10.213,6.7a1.621,1.621,0,0,1-.049,2.01L8.63,10.329a.54.54,0,0,0-.146.367c0,3.48,5.019,8.051,8.559,8.645a.54.54,0,0,0,.459-.14l1.621-1.518a1.621,1.621,0,0,1,2.015-.07l3.215,2.529a1.578,1.578,0,0,1,.281,1.162c-.265,1.567-1.021,3.442-3.182,3.442A18.371,18.371,0,0,1,3.081,6.374C3.081,4.212,4.955,3.456,6.528,3.213Z" transform="translate(-2 -2.111)"/></svg>
